# xmcd
#
# Track frame offsets:
#	150
#	33498
#	51383
#	82633
#	94499
#	108758
#	120093
#	124102
#	138236
#	160328
#	180129
#	207822
#	222918
#	247173
#	257709
#	292632
#	296727
#	310855
#	340979
#
# Disc length: 4662 seconds
#
# Revision: 1
# Processed by: cddbd v1.5.2PL0 Copyright (c) Steve Scherf et al.
# Submitted via: audiograbber 1.83.01
#
DISCID=09123413
DTITLE=Benini - Mercadante - Virginia CD 2
DYEAR=2009
DGENRE=Opera
TTITLE0=Dallo stellato empireo
TTITLE1=Fermate...
TTITLE2=Iniquo!
TTITLE3=Nè ti ritraggi
TTITLE4=Ah! perfido!
TTITLE5=Sì, ch'egli lasci
TTITLE6=Ad ora Tarda
TTITLE7=Si opporrebbe
TTITLE8=Tant'osi?
TTITLE9=ome insensata giace
TTITLE10=Sacri Penati
TTITLE11=Che fia?
TTITLE12=In vestimenti squallidi
TTITLE13=Mira d'innanzi
TTITLE14=All'empia sentenza
TTITLE15=Nera idea!...
TTITLE16=Ah! m'odi almeno
TTITLE17=Ch'io t'annodi
TTITLE18=Or sian divisi
EXTD=
EXTT0=
EXTT1=
EXTT2=
EXTT3=
EXTT4=
EXTT5=
EXTT6=
EXTT7=
EXTT8=
EXTT9=
EXTT10=
EXTT11=
EXTT12=
EXTT13=
EXTT14=
EXTT15=
EXTT16=
EXTT17=
EXTT18=
PLAYORDER=
